# This file uses centimeters as units for non-parametric coordinates.

mtllib StoneHammer_Low_NoOrnament.mtl
g default
v -0.810478 3.448341 1.500928
v 0.810478 3.448341 1.500928
v -0.810478 5.047993 1.500928
v 0.810478 5.047993 1.500928
v -0.810478 5.047993 -1.510517
v 0.810478 5.047993 -1.510517
v -0.810478 3.448341 -1.510517
v 0.810478 3.448341 -1.510517
v 0.000000 4.438469 1.434156
v -0.320552 4.230936 1.434156
v 0.000000 4.011124 1.434156
v 0.320934 4.230936 1.434156
v 0.000000 4.585369 1.621119
v -0.320552 4.230936 1.621119
v 0.000000 3.937674 1.621119
v 0.320934 4.230936 1.621119
v 0.000000 4.230936 2.155300
v 0.000000 3.117542 -0.459863
v -0.400972 3.117542 0.000000
v 0.000000 3.117542 0.459863
v 0.400972 3.117542 0.000000
v 0.000000 5.327937 -0.459863
v -0.405087 5.327937 0.000000
v 0.000000 5.327937 0.459863
v 0.405087 5.327937 0.000000
v 0.000000 3.066890 -0.288366
v -0.229994 3.066890 0.000000
v 0.000000 3.066890 0.288366
v 0.229994 3.066890 0.000000
v 0.000000 -1.652643 -0.288365
v -0.169481 -1.652643 -0.000001
v 0.000000 -1.652643 0.288365
v 0.169481 -1.652643 0.000001
v 0.000000 -2.110569 -0.451400
v -0.201279 -2.110569 -0.000004
v 0.000000 -2.472282 0.000000
v 0.000000 -2.110569 0.451400
v 0.201279 -2.110569 0.000004
v 0.000000 5.402139 -0.305958
v -0.209629 5.402139 0.000000
v 0.000000 5.402139 0.305958
v 0.209629 5.402139 0.000000
v 0.000000 5.813610 -0.305958
v -0.135427 5.813610 0.000000
v 0.000000 5.909684 -0.063577
v 0.000000 5.813610 0.305958
v 0.135427 5.813610 0.000000
v 0.000000 4.438469 -1.434156
v 0.320552 4.230936 -1.434156
v 0.000000 4.011124 -1.434156
v -0.320934 4.230936 -1.434156
v 0.000000 4.585369 -1.621119
v 0.320552 4.230936 -1.621119
v 0.000000 3.937674 -1.621119
v -0.320934 4.230936 -1.621119
v 0.000000 4.230936 -2.155300
v -0.991246 5.226386 1.099403
v 0.991246 5.226386 1.099403
v 0.991246 3.269948 1.099403
v -0.991246 3.269948 1.099403
v -0.991246 5.226386 -1.108991
v 0.991246 5.226386 -1.108991
v 0.991246 3.269948 -1.108991
v -0.991246 3.269948 -1.108991
vt 0.010809 0.576599
vt 0.203550 0.576599
vt 0.203550 0.783934
vt 0.010809 0.783934
vt 0.460417 0.991464
vt 0.460417 0.783934
vt 0.499936 0.783934
vt 0.499936 0.991464
vt 0.693061 0.783934
vt 0.499936 0.783934
vt 0.499936 0.576599
vt 0.693061 0.576599
vt 0.499936 0.368982
vt 0.499936 0.576599
vt 0.460417 0.576599
vt 0.460417 0.368982
vt 0.460417 0.783934
vt 0.460417 0.576599
vt 0.499936 0.576599
vt 0.499936 0.783934
vt 0.693061 0.576599
vt 0.732595 0.576599
vt 0.732595 0.783934
vt 0.693061 0.783934
vt 0.626970 0.807290
vt 0.553969 0.807290
vt 0.553969 0.849868
vt 0.626970 0.849868
vt 0.626970 0.807290
vt 0.626970 0.849868
vt 0.700058 0.807290
vt 0.700058 0.849868
vt 0.626970 0.971520
vt 0.516288 0.410950
vt 0.631694 0.410950
vt 0.631694 0.497542
vt 0.516288 0.497542
vt 0.750349 0.410950
vt 0.750349 0.497542
vt 0.869005 0.410950
vt 0.869005 0.497542
vt 0.984237 0.410950
vt 0.984237 0.497542
vt 0.631693 0.046996
vt 0.516288 0.046996
vt 0.750334 0.023717
vt 0.750349 0.046996
vt 0.631693 0.046996
vt 0.750334 0.023717
vt 0.869004 0.046996
vt 0.984237 0.046996
vt 0.987510 0.004625
vt 0.987510 0.041770
vt 0.968938 0.023197
vt 0.950365 0.041770
vt 0.950365 0.004625
vt 0.516288 0.380204
vt 0.631694 0.380204
vt 0.750349 0.380204
vt 0.869005 0.380204
vt 0.984237 0.380204
vt 0.516288 0.076467
vt 0.631694 0.076467
vt 0.750349 0.076467
vt 0.869005 0.076467
vt 0.984237 0.076467
vt 0.516288 0.046996
vt 0.631694 0.522338
vt 0.516288 0.522338
vt 0.750349 0.522338
vt 0.869005 0.522338
vt 0.984237 0.522338
vt 0.631694 0.560919
vt 0.516288 0.560919
vt 0.750349 0.560919
vt 0.869005 0.560919
vt 0.984237 0.560919
vt 0.910454 0.806532
vt 0.983455 0.806532
vt 0.983455 0.849110
vt 0.910454 0.849110
vt 0.910454 0.806532
vt 0.910454 0.849110
vt 0.837366 0.806532
vt 0.837366 0.849110
vt 0.910454 0.970762
vt 0.203550 0.991464
vt 0.203550 0.783934
vt 0.243068 0.783934
vt 0.243068 0.991464
vt 0.203550 0.576599
vt 0.243068 0.576599
vt 0.243068 0.783934
vt 0.203550 0.783934
vt 0.243068 0.368982
vt 0.243068 0.576599
vt 0.203550 0.576599
vt 0.203550 0.368982
vt 0.950031 0.783934
vt 0.950031 0.576599
vt 0.989564 0.576599
vt 0.989564 0.783934
vn 0.000000 0.000000 1.000000
vn 0.000000 0.000000 1.000000
vn 0.000000 0.000000 1.000000
vn 0.000000 0.000000 1.000000
vn 0.000000 0.998798 -0.049018
vn 0.000000 0.998798 -0.049018
vn 0.000000 0.913865 -0.406018
vn 0.000000 0.913865 -0.406018
vn 0.000000 0.000000 -1.000000
vn 0.000000 0.000000 -1.000000
vn 0.000000 0.000000 -1.000000
vn 0.000000 0.000000 -1.000000
vn 0.000000 -0.913865 -0.406018
vn 0.000000 -0.913865 -0.406018
vn 0.000000 -0.998798 -0.049018
vn 0.000000 -0.998798 -0.049018
vn 0.998756 0.000000 -0.049871
vn 0.998756 0.000000 -0.049871
vn 0.911852 0.000000 -0.410519
vn 0.911852 0.000000 -0.410519
vn -0.911852 0.000000 -0.410519
vn -0.998756 0.000000 -0.049871
vn -0.998756 0.000000 -0.049871
vn -0.911852 0.000000 -0.410519
vn -0.000063 0.930752 -0.365652
vn -0.943439 0.000000 -0.331546
vn -0.943439 0.000000 -0.331546
vn 0.000103 0.930752 -0.365652
vn -0.943439 0.000000 -0.331546
vn -0.000038 -0.981249 -0.192745
vn 0.000049 -0.981249 -0.192745
vn -0.943439 0.000000 -0.331546
vn -0.000038 -0.981249 -0.192745
vn 0.943316 0.000000 -0.331897
vn 0.943316 0.000000 -0.331897
vn 0.000049 -0.981249 -0.192745
vn 0.943316 0.000000 -0.331897
vn -0.000063 0.930752 -0.365652
vn 0.000103 0.930752 -0.365652
vn 0.943316 0.000000 -0.331897
vn 0.000097 0.833264 0.552876
vn -0.857389 0.013072 0.514502
vn 0.000376 0.059940 0.998202
vn -0.857389 0.013072 0.514502
vn 0.000072 -0.876588 0.481242
vn 0.000376 0.059940 0.998202
vn 0.000072 -0.876588 0.481242
vn 0.857118 0.013096 0.514953
vn 0.000376 0.059940 0.998202
vn 0.857118 0.013096 0.514953
vn 0.000097 0.833264 0.552876
vn 0.000376 0.059940 0.998202
vn 0.000000 -0.032941 -0.999457
vn -0.999442 -0.033407 0.000000
vn -0.999451 0.033146 0.000000
vn 0.000000 0.034612 -0.999401
vn -0.999442 -0.033407 0.000000
vn 0.000000 -0.032941 0.999457
vn 0.000000 0.034612 0.999401
vn -0.999451 0.033146 0.000000
vn 0.000000 -0.032941 0.999457
vn 0.999442 -0.033407 0.000000
vn 0.999451 0.033146 0.000000
vn 0.000000 0.034612 0.999401
vn 0.999442 -0.033407 0.000000
vn 0.000000 -0.032941 -0.999457
vn 0.000000 0.034612 -0.999401
vn 0.999451 0.033146 0.000000
vn -0.996802 -0.079908 -0.000002
vn 0.000013 -0.065517 -0.997851
vn 0.000000 -1.000000 0.000000
vn -0.000013 -0.065517 0.997851
vn -0.996802 -0.079908 -0.000002
vn 0.000000 -1.000000 0.000000
vn 0.996802 -0.079908 0.000002
vn -0.000013 -0.065517 0.997851
vn 0.000000 -1.000000 0.000000
vn 0.000013 -0.065517 -0.997851
vn 0.996802 -0.079908 0.000002
vn 0.000000 -1.000000 0.000000
vn 0.000000 0.227814 -0.973705
vn -0.979872 0.199377 0.010017
vn 0.000000 0.997145 -0.075513
vn -0.979872 0.199377 0.010017
vn -0.000001 0.252716 0.967541
vn 0.000000 0.997145 -0.075513
vn -0.000001 0.252716 0.967541
vn 0.979872 0.199377 0.010017
vn 0.000000 0.997145 -0.075513
vn 0.979872 0.199377 0.010017
vn 0.000000 0.227814 -0.973705
vn 0.000000 0.997145 -0.075513
vn -0.999442 -0.033407 0.000000
vn 0.000000 -0.032941 -0.999457
vn 0.000000 -0.965262 -0.261284
vn -0.305633 -0.952149 0.000000
vn 0.000000 -0.032941 0.999457
vn -0.999442 -0.033407 0.000000
vn -0.305633 -0.952149 0.000000
vn 0.000000 -0.965262 0.261284
vn 0.999442 -0.033407 0.000000
vn 0.000000 -0.032941 0.999457
vn 0.000000 -0.965262 0.261284
vn 0.305633 -0.952150 0.000000
vn 0.000000 -0.032941 -0.999457
vn 0.999442 -0.033407 0.000000
vn 0.305633 -0.952150 0.000000
vn 0.000000 -0.965262 -0.261284
vn -0.999979 -0.006411 0.000000
vn 0.000002 -0.009255 -0.999957
vn 0.000003 0.015513 -0.999880
vn -0.999966 0.008248 0.000000
vn -0.000002 -0.009255 0.999957
vn -0.999979 -0.006411 0.000000
vn -0.999966 0.008248 0.000000
vn -0.000003 0.015513 0.999880
vn 0.999979 -0.006411 0.000000
vn -0.000002 -0.009255 0.999957
vn -0.000003 0.015513 0.999880
vn 0.999966 0.008248 0.000000
vn 0.000002 -0.009255 -0.999957
vn 0.999979 -0.006411 0.000000
vn 0.999966 0.008248 0.000000
vn 0.000003 0.015513 -0.999880
vn -0.999966 0.008248 0.000000
vn 0.000003 0.015513 -0.999880
vn 0.000013 -0.065517 -0.997851
vn -0.996802 -0.079908 -0.000002
vn -0.000003 0.015513 0.999880
vn -0.999966 0.008248 0.000000
vn -0.996802 -0.079908 -0.000002
vn -0.000013 -0.065517 0.997851
vn 0.999966 0.008248 0.000000
vn -0.000003 0.015513 0.999880
vn -0.000013 -0.065517 0.997851
vn 0.996802 -0.079908 0.000002
vn 0.000003 0.015513 -0.999880
vn 0.999966 0.008248 0.000000
vn 0.996802 -0.079908 0.000002
vn 0.000013 -0.065517 -0.997851
vn 0.000000 0.034612 -0.999401
vn -0.999451 0.033146 0.000000
vn -0.421812 0.906683 0.000000
vn 0.000000 0.936811 -0.349835
vn -0.999451 0.033146 0.000000
vn 0.000000 0.034612 0.999401
vn 0.000000 0.936811 0.349835
vn -0.421812 0.906683 0.000000
vn 0.000000 0.034612 0.999401
vn 0.999451 0.033146 0.000000
vn 0.421812 0.906683 0.000000
vn 0.000000 0.936811 0.349835
vn 0.999451 0.033146 0.000000
vn 0.000000 0.034612 -0.999401
vn 0.000000 0.936811 -0.349835
vn 0.421812 0.906683 0.000000
vn 0.000001 0.157896 -0.987456
vn -0.995960 0.089803 0.000000
vn -0.979872 0.199377 0.010017
vn 0.000000 0.227814 -0.973705
vn -0.995960 0.089803 0.000000
vn -0.000001 0.157895 0.987456
vn -0.000001 0.252716 0.967541
vn -0.979872 0.199377 0.010017
vn -0.000001 0.157895 0.987456
vn 0.995960 0.089803 0.000000
vn 0.979872 0.199377 0.010017
vn -0.000001 0.252716 0.967541
vn 0.995960 0.089803 0.000000
vn 0.000001 0.157896 -0.987456
vn 0.000000 0.227814 -0.973705
vn 0.979872 0.199377 0.010017
vn 0.000063 0.930752 0.365652
vn 0.943439 0.000000 0.331546
vn 0.943439 0.000000 0.331546
vn -0.000103 0.930752 0.365652
vn 0.943439 0.000000 0.331546
vn 0.000038 -0.981249 0.192745
vn -0.000049 -0.981249 0.192745
vn 0.943439 0.000000 0.331546
vn 0.000038 -0.981249 0.192745
vn -0.943316 0.000000 0.331897
vn -0.943316 0.000000 0.331897
vn -0.000049 -0.981249 0.192745
vn -0.943316 0.000000 0.331897
vn 0.000063 0.930752 0.365652
vn -0.000103 0.930752 0.365652
vn -0.943316 0.000000 0.331897
vn -0.000097 0.833264 -0.552876
vn 0.857389 0.013072 -0.514502
vn -0.000376 0.059940 -0.998202
vn 0.857389 0.013072 -0.514502
vn -0.000072 -0.876588 -0.481242
vn -0.000376 0.059940 -0.998202
vn -0.000072 -0.876588 -0.481242
vn -0.857118 0.013096 -0.514953
vn -0.000376 0.059940 -0.998202
vn -0.857118 0.013096 -0.514953
vn -0.000097 0.833264 -0.552876
vn -0.000376 0.059940 -0.998202
vn 0.000000 0.913865 0.406019
vn 0.000000 0.913865 0.406019
vn 0.000000 0.998798 0.049018
vn 0.000000 0.998798 0.049018
vn 0.911852 0.000000 0.410520
vn 0.998756 0.000000 0.049871
vn 0.998756 0.000000 0.049871
vn 0.911852 0.000000 0.410520
vn 0.000000 -0.998798 0.049018
vn 0.000000 -0.998798 0.049018
vn 0.000000 -0.913865 0.406019
vn 0.000000 -0.913865 0.406019
vn -0.998756 0.000000 0.049871
vn -0.998756 0.000000 0.049871
vn -0.911852 0.000000 0.410520
vn -0.911852 0.000000 0.410520
vn 0.000000 0.998798 0.049018
vn 0.000000 0.998798 0.049018
vn 0.000000 0.998798 -0.049018
vn 0.000000 0.998798 -0.049018
vn 0.998756 0.000000 0.049871
vn 0.998756 0.000000 0.049871
vn 0.998756 0.000000 -0.049871
vn 0.998756 0.000000 -0.049871
vn 0.000000 -0.998798 -0.049018
vn 0.000000 -0.998798 -0.049018
vn 0.000000 -0.998798 0.049018
vn 0.000000 -0.998798 0.049018
vn -0.998756 0.000000 -0.049871
vn -0.998756 0.000000 -0.049871
vn -0.998756 0.000000 0.049871
vn -0.998756 0.000000 0.049871
s off
g StoneHammer_Low2
usemtl initialShadingGroup
f 1/1/1 2/2/2 4/3/3 3/4/4
f 61/5/5 62/6/6 6/7/7 5/8/8
f 5/9/9 6/10/10 8/11/11 7/12/12
f 7/13/13 8/14/14 63/15/15 64/16/16
f 62/17/17 63/18/18 8/19/19 6/20/20
f 7/21/21 64/22/22 61/23/23 5/24/24
f 9/25/25 10/26/26 14/27/27 13/28/28
f 10/26/29 11/29/30 15/30/31 14/27/32
f 11/29/33 12/31/34 16/32/35 15/30/36
f 12/31/37 9/25/38 13/28/39 16/32/40
f 13/28/41 14/27/42 17/33/43
f 14/27/44 15/30/45 17/33/46
f 15/30/47 16/32/48 17/33/49
f 16/32/50 13/28/51 17/33/52
f 18/34/53 19/35/54 23/36/55 22/37/56
f 19/35/57 20/38/58 24/39/59 23/36/60
f 20/38/61 21/40/62 25/41/63 24/39/64
f 21/40/65 18/42/66 22/43/67 25/41/68
f 35/44/69 34/45/70 36/46/71
f 37/47/72 35/48/73 36/49/74
f 38/50/75 37/47/76 36/49/77
f 34/51/78 38/50/79 36/49/80
f 43/52/81 44/53/82 45/54/83
f 44/53/84 46/55/85 45/54/86
f 46/55/87 47/56/88 45/54/89
f 47/56/90 43/52/91 45/54/92
f 19/35/93 18/34/94 26/57/95 27/58/96
f 20/38/97 19/35/98 27/58/99 28/59/100
f 21/40/101 20/38/102 28/59/103 29/60/104
f 18/42/105 21/40/106 29/60/107 26/61/108
f 27/58/109 26/57/110 30/62/111 31/63/112
f 28/59/113 27/58/114 31/63/115 32/64/116
f 29/60/117 28/59/118 32/64/119 33/65/120
f 26/61/121 29/60/122 33/65/123 30/66/124
f 31/63/125 30/62/126 34/67/127 35/48/128
f 32/64/129 31/63/130 35/48/131 37/47/132
f 33/65/133 32/64/134 37/47/135 38/50/136
f 30/66/137 33/65/138 38/50/139 34/51/140
f 22/37/141 23/36/142 40/68/143 39/69/144
f 23/36/145 24/39/146 41/70/147 40/68/148
f 24/39/149 25/41/150 42/71/151 41/70/152
f 25/41/153 22/43/154 39/72/155 42/71/156
f 39/69/157 40/68/158 44/73/159 43/74/160
f 40/68/161 41/70/162 46/75/163 44/73/164
f 41/70/165 42/71/166 47/76/167 46/75/168
f 42/71/169 39/72/170 43/77/171 47/76/172
f 48/78/173 49/79/174 53/80/175 52/81/176
f 49/79/177 50/82/178 54/83/179 53/80/180
f 50/82/181 51/84/182 55/85/183 54/83/184
f 51/84/185 48/78/186 52/81/187 55/85/188
f 52/81/189 53/80/190 56/86/191
f 53/80/192 54/83/193 56/86/194
f 54/83/195 55/85/196 56/86/197
f 55/85/198 52/81/199 56/86/200
f 3/87/201 4/88/202 58/89/203 57/90/204
f 2/91/205 59/92/206 58/93/207 4/94/208
f 60/95/209 59/96/210 2/97/211 1/98/212
f 57/99/213 60/100/214 1/101/215 3/102/216
f 57/90/217 58/89/218 62/6/219 61/5/220
f 58/93/221 59/92/222 63/18/223 62/17/224
f 64/16/225 63/15/226 59/96/227 60/95/228
f 61/23/229 64/22/230 60/100/231 57/99/232
