# This file uses centimeters as units for non-parametric coordinates.

mtllib StoneHammer_Low.mtl
g default
v 1.184888 4.244864 -0.282850
v 1.184888 3.962014 -0.000000
v 1.184888 4.244864 0.282850
v 1.184888 4.527714 0.000000
v 0.956422 4.244863 -0.525866
v 0.956422 3.718997 -0.000000
v 0.956422 4.244863 0.525866
v 0.956422 4.770730 0.000000
v 1.316522 4.244864 0.000000
v -0.810478 3.448341 1.500928
v 0.810478 3.448341 1.500928
v -0.810478 5.047993 1.500928
v 0.810478 5.047993 1.500928
v -0.810478 5.047993 -1.510517
v 0.810478 5.047993 -1.510517
v -0.810478 3.448341 -1.510517
v 0.810478 3.448341 -1.510517
v 0.000000 4.438469 1.434156
v -0.320552 4.230936 1.434156
v 0.000000 4.011124 1.434156
v 0.320934 4.230936 1.434156
v 0.000000 4.585369 1.621119
v -0.320552 4.230936 1.621119
v 0.000000 3.937674 1.621119
v 0.320934 4.230936 1.621119
v 0.000000 4.230936 2.155300
v 0.000000 3.117542 -0.459863
v -0.400972 3.117542 0.000000
v 0.000000 3.117542 0.459863
v 0.400972 3.117542 0.000000
v 0.000000 5.327937 -0.459863
v -0.405087 5.327937 0.000000
v 0.000000 5.327937 0.459863
v 0.405087 5.327937 0.000000
v 0.000000 3.066890 -0.288366
v -0.229994 3.066890 0.000000
v 0.000000 3.066890 0.288366
v 0.229994 3.066890 0.000000
v 0.000000 -1.652643 -0.288365
v -0.169481 -1.652643 -0.000001
v 0.000000 -1.652643 0.288365
v 0.169481 -1.652643 0.000001
v 0.000000 -2.110569 -0.451400
v -0.201279 -2.110569 -0.000004
v 0.000000 -2.472282 0.000000
v 0.000000 -2.110569 0.451400
v 0.201279 -2.110569 0.000004
v 0.000000 5.402139 -0.305958
v -0.209629 5.402139 0.000000
v 0.000000 5.402139 0.305958
v 0.209629 5.402139 0.000000
v 0.000000 5.813610 -0.305958
v -0.135427 5.813610 0.000000
v 0.000000 5.909684 -0.063577
v 0.000000 5.813610 0.305958
v 0.135427 5.813610 0.000000
v 0.000000 4.438469 -1.434156
v 0.320552 4.230936 -1.434156
v 0.000000 4.011124 -1.434156
v -0.320934 4.230936 -1.434156
v 0.000000 4.585369 -1.621119
v 0.320552 4.230936 -1.621119
v 0.000000 3.937674 -1.621119
v -0.320934 4.230936 -1.621119
v 0.000000 4.230936 -2.155300
v -0.991246 5.226386 1.099403
v 0.991246 5.226386 1.099403
v 0.991246 3.269948 1.099403
v -0.991246 3.269948 1.099403
v -0.991246 5.226386 -1.108991
v 0.991246 5.226386 -1.108991
v 0.991246 3.269948 -1.108991
v -0.991246 3.269948 -1.108991
v -1.184888 4.244864 0.282850
v -1.184888 3.962014 0.000000
v -1.184888 4.244864 -0.282850
v -1.184888 4.527714 -0.000000
v -0.956422 4.244863 0.525866
v -0.956422 3.718997 0.000000
v -0.956422 4.244863 -0.525866
v -0.956422 4.770730 -0.000000
v -1.316522 4.244864 -0.000000
vt 0.383184 0.073137
vt 0.322266 0.134055
vt 0.287117 0.134055
vt 0.383184 0.037988
vt 0.383184 0.194973
vt 0.383184 0.230122
vt 0.444102 0.134055
vt 0.479251 0.134055
vt 0.059435 0.893858
vt 0.103337 0.849956
vt 0.103337 0.893858
vt 0.103337 0.937759
vt 0.059435 0.893858
vt 0.103337 0.893858
vt 0.147238 0.893858
vt 0.103337 0.937759
vt 0.103337 0.893858
vt 0.103337 0.849956
vt 0.147238 0.893858
vt 0.103337 0.893858
vt 0.010809 0.576599
vt 0.203550 0.576599
vt 0.203550 0.783934
vt 0.010809 0.783934
vt 0.460417 0.991464
vt 0.460417 0.783934
vt 0.499936 0.783934
vt 0.499936 0.991464
vt 0.693061 0.783934
vt 0.499936 0.783934
vt 0.499936 0.576599
vt 0.693061 0.576599
vt 0.499936 0.368982
vt 0.499936 0.576599
vt 0.460417 0.576599
vt 0.460417 0.368982
vt 0.460417 0.783934
vt 0.460417 0.576599
vt 0.499936 0.576599
vt 0.499936 0.783934
vt 0.693061 0.576599
vt 0.732595 0.576599
vt 0.732595 0.783934
vt 0.693061 0.783934
vt 0.626970 0.807290
vt 0.553969 0.807290
vt 0.553969 0.849868
vt 0.626970 0.849868
vt 0.626970 0.807290
vt 0.626970 0.849868
vt 0.700058 0.807290
vt 0.700058 0.849868
vt 0.626970 0.971520
vt 0.516288 0.410950
vt 0.631694 0.410950
vt 0.631694 0.497542
vt 0.516288 0.497542
vt 0.750349 0.410950
vt 0.750349 0.497542
vt 0.869005 0.410950
vt 0.869005 0.497542
vt 0.984237 0.410950
vt 0.984237 0.497542
vt 0.631693 0.046996
vt 0.516288 0.046996
vt 0.750334 0.023717
vt 0.750349 0.046996
vt 0.631693 0.046996
vt 0.750334 0.023717
vt 0.869004 0.046996
vt 0.984237 0.046996
vt 0.987510 0.004625
vt 0.987510 0.041770
vt 0.968938 0.023197
vt 0.950365 0.041770
vt 0.950365 0.004625
vt 0.516288 0.380204
vt 0.631694 0.380204
vt 0.750349 0.380204
vt 0.869005 0.380204
vt 0.984237 0.380204
vt 0.516288 0.076467
vt 0.631694 0.076467
vt 0.750349 0.076467
vt 0.869005 0.076467
vt 0.984237 0.076467
vt 0.516288 0.046996
vt 0.631694 0.522338
vt 0.516288 0.522338
vt 0.750349 0.522338
vt 0.869005 0.522338
vt 0.984237 0.522338
vt 0.631694 0.560919
vt 0.516288 0.560919
vt 0.750349 0.560919
vt 0.869005 0.560919
vt 0.984237 0.560919
vt 0.910454 0.806532
vt 0.983455 0.806532
vt 0.983455 0.849110
vt 0.910454 0.849110
vt 0.910454 0.806532
vt 0.910454 0.849110
vt 0.837366 0.806532
vt 0.837366 0.849110
vt 0.910454 0.970762
vt 0.203550 0.991464
vt 0.203550 0.783934
vt 0.243068 0.783934
vt 0.243068 0.991464
vt 0.203550 0.576599
vt 0.243068 0.576599
vt 0.243068 0.783934
vt 0.203550 0.783934
vt 0.243068 0.368982
vt 0.243068 0.576599
vt 0.203550 0.576599
vt 0.203550 0.368982
vt 0.950031 0.783934
vt 0.950031 0.576599
vt 0.989564 0.576599
vt 0.989564 0.783934
vt 0.383184 0.073137
vt 0.322266 0.134055
vt 0.287117 0.134055
vt 0.383184 0.037988
vt 0.383184 0.194973
vt 0.383184 0.230122
vt 0.444102 0.134055
vt 0.479251 0.134055
vt 0.059435 0.893858
vt 0.103337 0.849956
vt 0.103337 0.893858
vt 0.103337 0.937759
vt 0.059435 0.893858
vt 0.103337 0.893858
vt 0.147238 0.893858
vt 0.103337 0.937759
vt 0.103337 0.893858
vt 0.103337 0.849956
vt 0.147238 0.893858
vt 0.103337 0.893858
vn 0.601095 -0.565104 -0.565104
vn 0.601095 -0.565104 -0.565104
vn 0.601095 -0.565104 -0.565104
vn 0.601095 -0.565104 -0.565104
vn 0.601095 -0.565104 0.565104
vn 0.601095 -0.565104 0.565104
vn 0.601095 -0.565104 0.565104
vn 0.601095 -0.565104 0.565104
vn 0.601094 0.565105 0.565104
vn 0.601094 0.565105 0.565104
vn 0.601094 0.565105 0.565104
vn 0.601094 0.565105 0.565104
vn 0.601094 0.565105 -0.565104
vn 0.601094 0.565105 -0.565104
vn 0.601094 0.565105 -0.565104
vn 0.601094 0.565105 -0.565104
vn 0.906628 -0.421931 -0.000000
vn 0.906628 0.000000 -0.421931
vn 1.000000 0.000000 0.000000
vn 0.906628 0.000000 0.421931
vn 0.906628 0.421930 0.000000
vn 0.000000 0.000000 1.000000
vn 0.000000 0.000000 1.000000
vn 0.000000 0.000000 1.000000
vn 0.000000 0.000000 1.000000
vn 0.000000 0.998798 -0.049018
vn 0.000000 0.998798 -0.049018
vn 0.000000 0.913865 -0.406018
vn 0.000000 0.913865 -0.406018
vn 0.000000 0.000000 -1.000000
vn 0.000000 0.000000 -1.000000
vn 0.000000 0.000000 -1.000000
vn 0.000000 0.000000 -1.000000
vn 0.000000 -0.913865 -0.406018
vn 0.000000 -0.913865 -0.406018
vn 0.000000 -0.998798 -0.049018
vn 0.000000 -0.998798 -0.049018
vn 0.998756 0.000000 -0.049871
vn 0.998756 0.000000 -0.049871
vn 0.911852 0.000000 -0.410519
vn 0.911852 0.000000 -0.410519
vn -0.911852 0.000000 -0.410519
vn -0.998756 0.000000 -0.049871
vn -0.998756 0.000000 -0.049871
vn -0.911852 0.000000 -0.410519
vn -0.000063 0.930752 -0.365652
vn -0.943439 0.000000 -0.331546
vn -0.943439 0.000000 -0.331546
vn 0.000103 0.930752 -0.365652
vn -0.943439 0.000000 -0.331546
vn -0.000038 -0.981249 -0.192745
vn 0.000049 -0.981249 -0.192745
vn -0.943439 0.000000 -0.331546
vn -0.000038 -0.981249 -0.192745
vn 0.943316 0.000000 -0.331897
vn 0.943316 0.000000 -0.331897
vn 0.000049 -0.981249 -0.192745
vn 0.943316 0.000000 -0.331897
vn -0.000063 0.930752 -0.365652
vn 0.000103 0.930752 -0.365652
vn 0.943316 0.000000 -0.331897
vn 0.000097 0.833264 0.552876
vn -0.857389 0.013072 0.514502
vn 0.000376 0.059940 0.998202
vn -0.857389 0.013072 0.514502
vn 0.000072 -0.876588 0.481242
vn 0.000376 0.059940 0.998202
vn 0.000072 -0.876588 0.481242
vn 0.857118 0.013096 0.514953
vn 0.000376 0.059940 0.998202
vn 0.857118 0.013096 0.514953
vn 0.000097 0.833264 0.552876
vn 0.000376 0.059940 0.998202
vn 0.000000 -0.032941 -0.999457
vn -0.999442 -0.033407 0.000000
vn -0.999451 0.033146 0.000000
vn 0.000000 0.034612 -0.999401
vn -0.999442 -0.033407 0.000000
vn 0.000000 -0.032941 0.999457
vn 0.000000 0.034612 0.999401
vn -0.999451 0.033146 0.000000
vn 0.000000 -0.032941 0.999457
vn 0.999442 -0.033407 0.000000
vn 0.999451 0.033146 0.000000
vn 0.000000 0.034612 0.999401
vn 0.999442 -0.033407 0.000000
vn 0.000000 -0.032941 -0.999457
vn 0.000000 0.034612 -0.999401
vn 0.999451 0.033146 0.000000
vn -0.996802 -0.079908 -0.000002
vn 0.000013 -0.065517 -0.997851
vn 0.000000 -1.000000 0.000000
vn -0.000013 -0.065517 0.997851
vn -0.996802 -0.079908 -0.000002
vn 0.000000 -1.000000 0.000000
vn 0.996802 -0.079908 0.000002
vn -0.000013 -0.065517 0.997851
vn 0.000000 -1.000000 0.000000
vn 0.000013 -0.065517 -0.997851
vn 0.996802 -0.079908 0.000002
vn 0.000000 -1.000000 0.000000
vn 0.000000 0.227814 -0.973705
vn -0.979872 0.199377 0.010017
vn 0.000000 0.997145 -0.075513
vn -0.979872 0.199377 0.010017
vn -0.000001 0.252716 0.967541
vn 0.000000 0.997145 -0.075513
vn -0.000001 0.252716 0.967541
vn 0.979872 0.199377 0.010017
vn 0.000000 0.997145 -0.075513
vn 0.979872 0.199377 0.010017
vn 0.000000 0.227814 -0.973705
vn 0.000000 0.997145 -0.075513
vn -0.999442 -0.033407 0.000000
vn 0.000000 -0.032941 -0.999457
vn 0.000000 -0.965262 -0.261284
vn -0.305633 -0.952149 0.000000
vn 0.000000 -0.032941 0.999457
vn -0.999442 -0.033407 0.000000
vn -0.305633 -0.952149 0.000000
vn 0.000000 -0.965262 0.261284
vn 0.999442 -0.033407 0.000000
vn 0.000000 -0.032941 0.999457
vn 0.000000 -0.965262 0.261284
vn 0.305633 -0.952150 0.000000
vn 0.000000 -0.032941 -0.999457
vn 0.999442 -0.033407 0.000000
vn 0.305633 -0.952150 0.000000
vn 0.000000 -0.965262 -0.261284
vn -0.999979 -0.006411 0.000000
vn 0.000002 -0.009255 -0.999957
vn 0.000003 0.015513 -0.999880
vn -0.999966 0.008248 0.000000
vn -0.000002 -0.009255 0.999957
vn -0.999979 -0.006411 0.000000
vn -0.999966 0.008248 0.000000
vn -0.000003 0.015513 0.999880
vn 0.999979 -0.006411 0.000000
vn -0.000002 -0.009255 0.999957
vn -0.000003 0.015513 0.999880
vn 0.999966 0.008248 0.000000
vn 0.000002 -0.009255 -0.999957
vn 0.999979 -0.006411 0.000000
vn 0.999966 0.008248 0.000000
vn 0.000003 0.015513 -0.999880
vn -0.999966 0.008248 0.000000
vn 0.000003 0.015513 -0.999880
vn 0.000013 -0.065517 -0.997851
vn -0.996802 -0.079908 -0.000002
vn -0.000003 0.015513 0.999880
vn -0.999966 0.008248 0.000000
vn -0.996802 -0.079908 -0.000002
vn -0.000013 -0.065517 0.997851
vn 0.999966 0.008248 0.000000
vn -0.000003 0.015513 0.999880
vn -0.000013 -0.065517 0.997851
vn 0.996802 -0.079908 0.000002
vn 0.000003 0.015513 -0.999880
vn 0.999966 0.008248 0.000000
vn 0.996802 -0.079908 0.000002
vn 0.000013 -0.065517 -0.997851
vn 0.000000 0.034612 -0.999401
vn -0.999451 0.033146 0.000000
vn -0.421812 0.906683 0.000000
vn 0.000000 0.936811 -0.349835
vn -0.999451 0.033146 0.000000
vn 0.000000 0.034612 0.999401
vn 0.000000 0.936811 0.349835
vn -0.421812 0.906683 0.000000
vn 0.000000 0.034612 0.999401
vn 0.999451 0.033146 0.000000
vn 0.421812 0.906683 0.000000
vn 0.000000 0.936811 0.349835
vn 0.999451 0.033146 0.000000
vn 0.000000 0.034612 -0.999401
vn 0.000000 0.936811 -0.349835
vn 0.421812 0.906683 0.000000
vn 0.000001 0.157896 -0.987456
vn -0.995960 0.089803 0.000000
vn -0.979872 0.199377 0.010017
vn 0.000000 0.227814 -0.973705
vn -0.995960 0.089803 0.000000
vn -0.000001 0.157895 0.987456
vn -0.000001 0.252716 0.967541
vn -0.979872 0.199377 0.010017
vn -0.000001 0.157895 0.987456
vn 0.995960 0.089803 0.000000
vn 0.979872 0.199377 0.010017
vn -0.000001 0.252716 0.967541
vn 0.995960 0.089803 0.000000
vn 0.000001 0.157896 -0.987456
vn 0.000000 0.227814 -0.973705
vn 0.979872 0.199377 0.010017
vn 0.000063 0.930752 0.365652
vn 0.943439 0.000000 0.331546
vn 0.943439 0.000000 0.331546
vn -0.000103 0.930752 0.365652
vn 0.943439 0.000000 0.331546
vn 0.000038 -0.981249 0.192745
vn -0.000049 -0.981249 0.192745
vn 0.943439 0.000000 0.331546
vn 0.000038 -0.981249 0.192745
vn -0.943316 0.000000 0.331897
vn -0.943316 0.000000 0.331897
vn -0.000049 -0.981249 0.192745
vn -0.943316 0.000000 0.331897
vn 0.000063 0.930752 0.365652
vn -0.000103 0.930752 0.365652
vn -0.943316 0.000000 0.331897
vn -0.000097 0.833264 -0.552876
vn 0.857389 0.013072 -0.514502
vn -0.000376 0.059940 -0.998202
vn 0.857389 0.013072 -0.514502
vn -0.000072 -0.876588 -0.481242
vn -0.000376 0.059940 -0.998202
vn -0.000072 -0.876588 -0.481242
vn -0.857118 0.013096 -0.514953
vn -0.000376 0.059940 -0.998202
vn -0.857118 0.013096 -0.514953
vn -0.000097 0.833264 -0.552876
vn -0.000376 0.059940 -0.998202
vn 0.000000 0.913865 0.406019
vn 0.000000 0.913865 0.406019
vn 0.000000 0.998798 0.049018
vn 0.000000 0.998798 0.049018
vn 0.911852 0.000000 0.410520
vn 0.998756 0.000000 0.049871
vn 0.998756 0.000000 0.049871
vn 0.911852 0.000000 0.410520
vn 0.000000 -0.998798 0.049018
vn 0.000000 -0.998798 0.049018
vn 0.000000 -0.913865 0.406019
vn 0.000000 -0.913865 0.406019
vn -0.998756 0.000000 0.049871
vn -0.998756 0.000000 0.049871
vn -0.911852 0.000000 0.410520
vn -0.911852 0.000000 0.410520
vn 0.000000 0.998798 0.049018
vn 0.000000 0.998798 0.049018
vn 0.000000 0.998798 -0.049018
vn 0.000000 0.998798 -0.049018
vn 0.998756 0.000000 0.049871
vn 0.998756 0.000000 0.049871
vn 0.998756 0.000000 -0.049871
vn 0.998756 0.000000 -0.049871
vn 0.000000 -0.998798 -0.049018
vn 0.000000 -0.998798 -0.049018
vn 0.000000 -0.998798 0.049018
vn 0.000000 -0.998798 0.049018
vn -0.998756 0.000000 -0.049871
vn -0.998756 0.000000 -0.049871
vn -0.998756 0.000000 0.049871
vn -0.998756 0.000000 0.049871
vn -0.601095 -0.565104 0.565104
vn -0.601095 -0.565104 0.565104
vn -0.601095 -0.565104 0.565104
vn -0.601095 -0.565104 0.565104
vn -0.601095 -0.565104 -0.565104
vn -0.601095 -0.565104 -0.565104
vn -0.601095 -0.565104 -0.565104
vn -0.601095 -0.565104 -0.565104
vn -0.601094 0.565105 -0.565104
vn -0.601094 0.565105 -0.565104
vn -0.601094 0.565105 -0.565104
vn -0.601094 0.565105 -0.565104
vn -0.601094 0.565105 0.565104
vn -0.601094 0.565105 0.565104
vn -0.601094 0.565105 0.565104
vn -0.601094 0.565105 0.565104
vn -0.906628 -0.421931 0.000000
vn -0.906628 0.000000 0.421931
vn -1.000000 0.000000 -0.000000
vn -0.906628 0.000000 -0.421931
vn -0.906628 0.421930 0.000000
s off
g StoneHammer_Low2
usemtl initialShadingGroup
f 1/1/1 2/2/2 6/3/3 5/4/4
f 2/2/5 3/5/6 7/6/7 6/3/8
f 3/5/9 4/7/10 8/8/11 7/6/12
f 4/7/13 1/1/14 5/4/15 8/8/16
s 1
f 2/9/17 1/10/18 9/11/19
f 3/12/20 2/13/17 9/14/19
f 4/15/21 3/16/20 9/17/19
f 1/18/18 4/19/21 9/20/19
s off
f 10/21/22 11/22/23 13/23/24 12/24/25
f 70/25/26 71/26/27 15/27/28 14/28/29
f 14/29/30 15/30/31 17/31/32 16/32/33
f 16/33/34 17/34/35 72/35/36 73/36/37
f 71/37/38 72/38/39 17/39/40 15/40/41
f 16/41/42 73/42/43 70/43/44 14/44/45
f 18/45/46 19/46/47 23/47/48 22/48/49
f 19/46/50 20/49/51 24/50/52 23/47/53
f 20/49/54 21/51/55 25/52/56 24/50/57
f 21/51/58 18/45/59 22/48/60 25/52/61
f 22/48/62 23/47/63 26/53/64
f 23/47/65 24/50/66 26/53/67
f 24/50/68 25/52/69 26/53/70
f 25/52/71 22/48/72 26/53/73
f 27/54/74 28/55/75 32/56/76 31/57/77
f 28/55/78 29/58/79 33/59/80 32/56/81
f 29/58/82 30/60/83 34/61/84 33/59/85
f 30/60/86 27/62/87 31/63/88 34/61/89
f 44/64/90 43/65/91 45/66/92
f 46/67/93 44/68/94 45/69/95
f 47/70/96 46/67/97 45/69/98
f 43/71/99 47/70/100 45/69/101
f 52/72/102 53/73/103 54/74/104
f 53/73/105 55/75/106 54/74/107
f 55/75/108 56/76/109 54/74/110
f 56/76/111 52/72/112 54/74/113
f 28/55/114 27/54/115 35/77/116 36/78/117
f 29/58/118 28/55/119 36/78/120 37/79/121
f 30/60/122 29/58/123 37/79/124 38/80/125
f 27/62/126 30/60/127 38/80/128 35/81/129
f 36/78/130 35/77/131 39/82/132 40/83/133
f 37/79/134 36/78/135 40/83/136 41/84/137
f 38/80/138 37/79/139 41/84/140 42/85/141
f 35/81/142 38/80/143 42/85/144 39/86/145
f 40/83/146 39/82/147 43/87/148 44/68/149
f 41/84/150 40/83/151 44/68/152 46/67/153
f 42/85/154 41/84/155 46/67/156 47/70/157
f 39/86/158 42/85/159 47/70/160 43/71/161
f 31/57/162 32/56/163 49/88/164 48/89/165
f 32/56/166 33/59/167 50/90/168 49/88/169
f 33/59/170 34/61/171 51/91/172 50/90/173
f 34/61/174 31/63/175 48/92/176 51/91/177
f 48/89/178 49/88/179 53/93/180 52/94/181
f 49/88/182 50/90/183 55/95/184 53/93/185
f 50/90/186 51/91/187 56/96/188 55/95/189
f 51/91/190 48/92/191 52/97/192 56/96/193
f 57/98/194 58/99/195 62/100/196 61/101/197
f 58/99/198 59/102/199 63/103/200 62/100/201
f 59/102/202 60/104/203 64/105/204 63/103/205
f 60/104/206 57/98/207 61/101/208 64/105/209
f 61/101/210 62/100/211 65/106/212
f 62/100/213 63/103/214 65/106/215
f 63/103/216 64/105/217 65/106/218
f 64/105/219 61/101/220 65/106/221
f 12/107/222 13/108/223 67/109/224 66/110/225
f 11/111/226 68/112/227 67/113/228 13/114/229
f 69/115/230 68/116/231 11/117/232 10/118/233
f 66/119/234 69/120/235 10/121/236 12/122/237
f 66/110/238 67/109/239 71/26/240 70/25/241
f 67/113/242 68/112/243 72/38/244 71/37/245
f 73/36/246 72/35/247 68/116/248 69/115/249
f 70/43/250 73/42/251 69/120/252 66/119/253
f 74/123/254 75/124/255 79/125/256 78/126/257
f 75/124/258 76/127/259 80/128/260 79/125/261
f 76/127/262 77/129/263 81/130/264 80/128/265
f 77/129/266 74/123/267 78/126/268 81/130/269
s 2
f 75/131/270 74/132/271 82/133/272
f 76/134/273 75/135/270 82/136/272
f 77/137/274 76/138/273 82/139/272
f 74/140/271 77/141/274 82/142/272
